<svg id="Logo" xmlns="http://www.w3.org/2000/svg" width="43" height="60" viewBox="0 0 43 60">
  <defs>
    <style>
      .cls-1 {
        fill: #c4c4c4;
      }

      .cls-2 {
        fill: none;
        stroke: #c4c4c4;
        stroke-width: 1.5px;
      }

      .cls-3 {
        fill: #9f9f9f;
      }

      .cls-4 {
        fill: #fff;
      }

      .cls-5 {
        fill: #ff5d5d;
      }

      .cls-6 {
        fill: #167eb7;
      }
    </style>
  </defs>
  <circle id="Ellipse_41" data-name="Ellipse 41" class="cls-1" cx="18" cy="18" r="18" transform="translate(4 24)"/>
  <path id="Pfad_1995" data-name="Pfad 1995" class="cls-2" d="M426,718.889s.438-12.213,8.133-19.03" transform="translate(-401.914 -694.388)"/>
  <circle id="Ellipse_42" data-name="Ellipse 42" class="cls-3" cx="10.5" cy="10.5" r="10.5" transform="translate(0 26.684)"/>
  <circle id="Ellipse_43" data-name="Ellipse 43" class="cls-3" cx="7" cy="7" r="7" transform="translate(29 36.8)"/>
  <circle id="Ellipse_44" data-name="Ellipse 44" class="cls-4" cx="8.5" cy="8.5" r="8.5" transform="translate(2 28.674)"/>
  <circle id="Ellipse_45" data-name="Ellipse 45" class="cls-4" cx="6" cy="6" r="6" transform="translate(30 37.755)"/>
  <path id="Differenzmenge_4" data-name="Differenzmenge 4" class="cls-3" d="M7.89,6H6.109A6.076,6.076,0,0,1,1.825,4.246,6.074,6.074,0,0,1,0,0H14a6.074,6.074,0,0,1-1.826,4.246A6.076,6.076,0,0,1,7.89,6Z" transform="translate(15 48)"/>
  <circle id="Ellipse_46" data-name="Ellipse 46" class="cls-5" cx="4.5" cy="4.5" r="4.5" transform="translate(29)"/>
  <circle id="Ellipse_47" data-name="Ellipse 47" class="cls-6" cx="5.5" cy="5.5" r="5.5" transform="translate(5 31.653)"/>
  <circle id="Ellipse_48" data-name="Ellipse 48" class="cls-6" cx="3" cy="3" r="3" transform="translate(33 40.755)"/>
  <circle id="Ellipse_49" data-name="Ellipse 49" class="cls-4" cx="1.5" cy="1.5" r="1.5" transform="translate(36 39.696)"/>
  <circle id="Ellipse_50" data-name="Ellipse 50" class="cls-4" cx="2.5" cy="2.5" r="2.5" transform="translate(11 30.574)"/>
</svg>
